<?xml version="1.0" encoding="utf-8"?>
<!-- Generator: Adobe Illustrator 24.2.0, SVG Export Plug-In . SVG Version: 6.00 Build 0)  -->
<svg version="1.1" id="Layer_1" xmlns="http://www.w3.org/2000/svg" xmlns:xlink="http://www.w3.org/1999/xlink" x="0px" y="0px"
	 viewBox="0 0 23.8 23.8" style="enable-background:new 0 0 23.8 23.8;" xml:space="preserve">
<style type="text/css">
	.st0{fill:#020030;stroke:#00404F;stroke-miterlimit:10;}
	.st1{fill:#FFFF00;stroke:#00FF00;stroke-miterlimit:10;}
</style>
<circle class="st0" cx="11.9" cy="11.9" r="11.4"/>
<path class="st1" d="M17.1,19c-0.5,0-1-0.2-1.4-0.5c-0.4-0.3-0.7-0.7-0.8-1.2h-4.2c-0.9,0-1.6-0.3-2.2-0.9s-0.9-1.3-0.9-2.2
	c0-0.9,0.3-1.6,0.9-2.2c0.6-0.6,1.3-0.9,2.2-0.9h1.5c0.5,0,1-0.2,1.3-0.5c0.3-0.3,0.5-0.8,0.5-1.3c0-0.5-0.2-1-0.5-1.3
	c-0.3-0.3-0.8-0.5-1.3-0.5H8C7.8,8.1,7.6,8.5,7.2,8.8C6.8,9.1,6.3,9.3,5.8,9.3c-0.6,0-1.2-0.2-1.6-0.7C3.7,8.2,3.5,7.7,3.5,7
	s0.2-1.2,0.7-1.6c0.4-0.4,1-0.7,1.6-0.7c0.5,0,1,0.2,1.4,0.5C7.6,5.6,7.8,6,8,6.4h4.3c0.9,0,1.6,0.3,2.2,0.9s0.9,1.3,0.9,2.2
	c0,0.9-0.3,1.6-0.9,2.2c-0.6,0.6-1.3,0.9-2.2,0.9h-1.5c-0.5,0-1,0.2-1.3,0.5c-0.3,0.3-0.5,0.8-0.5,1.3c0,0.5,0.2,1,0.5,1.3
	c0.3,0.3,0.8,0.5,1.3,0.5h4.2c0.1-0.5,0.4-0.9,0.8-1.2c0.4-0.3,0.9-0.5,1.4-0.5c0.6,0,1.2,0.2,1.6,0.7c0.4,0.4,0.7,1,0.7,1.6
	c0,0.6-0.2,1.2-0.7,1.6C18.3,18.8,17.7,19,17.1,19z M5.8,8.1c0.3,0,0.6-0.1,0.8-0.3C6.7,7.6,6.8,7.3,6.8,7c0-0.3-0.1-0.6-0.3-0.8
	C6.3,6.1,6.1,6,5.8,6S5.2,6.1,5,6.3C4.8,6.5,4.7,6.7,4.7,7c0,0.3,0.1,0.6,0.3,0.8C5.2,8,5.5,8.1,5.8,8.1z"/>
</svg>
