<?xml version="1.0" encoding="utf-8"?>
<svg xmlns="http://www.w3.org/2000/svg" viewBox="507.2022 328.1666 22.8 22.8" width="22.8px" height="22.8px"><g data-name="Layer 2" transform="matrix(1, 0, 0, 1, 506.70215598795045, 327.6666308591757)" id="object-0"><g data-name="Layer 1"><rect height="20" width="20" x="1.868" y="1.8" style="fill: none;"/><circle cx="11.9" cy="11.9" r="11.4" style="fill:#02001f;stroke:#00404f;stroke-miterlimit:10"/><path d="M 19.868 11.8 L 19.868 16.3 C 19.868 17.13 19.198 17.8 18.368 17.8 L 5.368 17.8 C 4.538 17.8 3.868 17.13 3.868 16.3 L 3.868 7.3 C 3.868 6.47 4.538 5.8 5.368 5.8 L 13.868 5.8 C 13.868 5.8 13.878 7.28 13.868 7.3 L 5.368 7.3 L 5.368 16.3 L 18.368 16.3 L 18.368 11.8 L 19.868 11.8 Z M 19.868 8.05 C 19.868 6.81 18.858 5.8 17.618 5.8 C 16.368 5.8 15.368 6.81 15.368 8.05 C 15.368 9.29 16.378 10.3 17.618 10.3 C 18.858 10.3 19.868 9.29 19.868 8.05 Z M 11.218 11.89 L 9.628 13.48 C 9.338 13.77 9.338 14.25 9.628 14.54 C 9.918 14.83 10.398 14.83 10.688 14.54 L 12.278 12.95 L 13.018 13.69 C 13.328 14 13.868 13.78 13.868 13.33 L 13.868 10.8 C 13.868 10.52 13.648 10.3 13.368 10.3 L 10.838 10.3 C 10.388 10.3 10.168 10.84 10.488 11.15 L 11.218 11.89 Z" style="fill: none;"/><rect fill="none" height="20" width="20" x="1.755" y="1.962"/><path d="M 7.04 17.954 C 6.552 17.954 6.138 17.794 5.794 17.474 C 5.45 17.155 5.279 16.768 5.279 16.313 L 5.279 5.564 C 5.279 5.11 5.506 4.795 5.961 4.622 C 6.415 4.449 6.817 4.524 7.168 4.85 L 8.447 6.039 L 7.467 6.952 L 8.05 7.494 L 9.03 6.582 L 11.43 8.817 L 10.45 9.729 L 11.032 10.271 L 12.012 9.359 L 14.427 11.606 L 13.447 12.518 L 14.03 13.061 L 15.01 12.149 L 17.41 14.383 L 16.43 15.295 L 17.013 15.838 L 17.993 14.926 L 19.199 16.05 C 19.578 16.402 19.669 16.807 19.474 17.267 C 19.277 17.724 18.92 17.954 18.404 17.954 L 7.04 17.954 Z M 7.267 16.102 L 16.202 16.102 L 7.267 7.785 L 7.267 16.102 Z" style="fill: rgb(35, 255, 7); paint-order: stroke; fill-rule: nonzero;"/></g></g></svg>