<?xml version="1.0" encoding="utf-8"?>
<!-- Generator: Adobe Illustrator 24.2.0, SVG Export Plug-In . SVG Version: 6.00 Build 0)  -->
<svg version="1.1" id="Layer_1" xmlns="http://www.w3.org/2000/svg" xmlns:xlink="http://www.w3.org/1999/xlink" x="0px" y="0px"
	 viewBox="0 0 22.5 22.5" style="enable-background:new 0 0 22.5 22.5;" xml:space="preserve">
<style type="text/css">
	.st0{fill:#02001F;stroke:#00404F;stroke-width:0.9708;stroke-miterlimit:9.7087;}
	.st1{fill:#00404F;stroke:#00FF00;stroke-miterlimit:10;}
</style>
<g id="object-0" transform="matrix(0.985328, 0, 0, 0.985328, 561.931344, 237.156833)">
	<g>
		<circle class="st0" cx="-558.9" cy="-229.3" r="10.6"/>
	</g>
</g>
<path class="st1" d="M11.2,13.2c-0.4,0-0.9-0.2-1.2-0.6c-0.3-0.3-0.6-0.8-0.6-1.2s0.2-0.9,0.6-1.2c0.3-0.3,0.8-0.6,1.2-0.6
	s0.9,0.2,1.2,0.6c0.3,0.3,0.6,0.8,0.6,1.2c0,0.4-0.2,0.9-0.6,1.2C12.1,12.9,11.8,13.2,11.2,13.2z M10.5,7.4V2.6H12v4.8H10.5z
	 M10.5,20.2v-4.8H12v4.8H10.5z M15.2,12.2v-1.4H20v1.4H15.2z M2.4,12.2v-1.4h4.8v1.4H2.4z"/>
</svg>
