<?xml version="1.0" encoding="utf-8"?>
<!-- Generator: Adobe Illustrator 24.2.0, SVG Export Plug-In . SVG Version: 6.00 Build 0)  -->
<svg version="1.1" id="Layer_1" xmlns="http://www.w3.org/2000/svg" xmlns:xlink="http://www.w3.org/1999/xlink" x="0px" y="0px"
	 viewBox="0 0 23.8 23.8" style="enable-background:new 0 0 23.8 23.8;" xml:space="preserve">
<style type="text/css">
	.st0{fill:#020030;stroke:#00404F;stroke-miterlimit:10;}
	.st1{fill:#FFFF00;}
	.st2{fill:#23FF07;}
</style>
<circle class="st0" cx="11.9" cy="11.9" r="11.4"/>
<path class="st1" d="M17.3,19.5c-0.1,0-0.2,0-0.3-0.1c-0.1,0-0.2-0.1-0.3-0.2l-4.2-4.2c-0.1-0.1-0.2-0.2-0.2-0.3
	c0-0.1-0.1-0.2-0.1-0.3c0-0.1,0-0.2,0.1-0.3c0-0.1,0.1-0.2,0.2-0.3l1.5-1.5c0.1-0.1,0.2-0.1,0.3-0.2c0.2-0.1,0.5-0.1,0.7,0
	c0.1,0,0.2,0.1,0.3,0.2l4.2,4.2c0.1,0.1,0.2,0.2,0.2,0.3c0,0.1,0.1,0.2,0.1,0.3c0,0.1,0,0.2-0.1,0.3c0,0.1-0.1,0.2-0.2,0.3L18,19.3
	C17.8,19.4,17.6,19.5,17.3,19.5L17.3,19.5z"/>
<path class="st1" d="M17,17.2l0.5-0.5l-3.3-3.3l-0.5,0.5C13.7,13.9,17,17.2,17,17.2z M10.6,11.6L7.5,8.4H6.4L3.9,5.9l2.2-2.2
	l2.5,2.5v1.1l3.1,3.1"/>
<path class="st2" d="M11.9,10.7l2.2-2.2L13,7.4l1-0.9h-1.9l-0.5-0.6l2.8-2.8l0.6,0.6v1.9l0.9-1l3.1,3.1c0.2,0.2,0.4,0.5,0.5,0.7
	c0.3,0.6,0.3,1.2,0,1.8c-0.1,0.3-0.3,0.5-0.5,0.8l-1.6-1.6l-1.1,1.1l-0.9-0.9l-3.9,3.9v1.6l-4.2,4.2c-0.1,0.1-0.2,0.1-0.3,0.2
	c-0.1,0-0.2,0.1-0.3,0.1c-0.1,0-0.2,0-0.3-0.1c-0.1,0-0.2-0.1-0.3-0.2l-1.5-1.5c-0.1-0.1-0.2-0.2-0.2-0.3c0-0.1-0.1-0.2-0.1-0.4
	c0-0.1,0-0.2,0.1-0.3c0-0.1,0.1-0.2,0.2-0.3l4.2-4.2h1.6l0.6-0.6"/>
<path class="st2" d="M6.6,17.7l3.4-3.4v-0.5H9.4L6,17.2C6,17.2,6.6,17.7,6.6,17.7z"/>
</svg>
